<?xml version="1.0" encoding="utf-8"?>

<svg version="1.1" id="Layer_1" xmlns="http://www.w3.org/2000/svg" xmlns:xlink="http://www.w3.org/1999/xlink" x="0px" y="0px"
	 viewBox="0 0 1920 1080" style="enable-background:new 0 0 1920 1080;" xml:space="preserve">
<style type="text/css">
	.st0{fill:#FDD2B9;}
	.st1{fill:#EAB296;}
	.st2{fill:#00BCE9;}
	.st3{fill:#F2BFA5;}
	.st4{fill:#231F20;}
	.st5{fill:#F4A7A2;}
	.st6{fill:#206CB6;}
	.st7{fill:#FDB827;}
	.st8{fill:#F49C27;}
	.st9{fill:#A54616;}
	.st10{fill:#E5781F;}
	.st11{fill:#FCF6AE;}
	.st12{fill:#D32F2F;}
	.st13{fill:#7C8B96;}
	.st14{fill:#BEC9D2;}
	.st15{fill:#929FA9;}
	.st16{fill:#384457;}
	.st17{fill:#637079;}
	.st18{fill:#E4EDF1;}
	.st19{fill:#81C566;}
	.st20{fill:#525D65;}
	.st21{fill:#3B464E;}
	.st22{fill:#6AC17B;}
	.st23{fill:#D8E2E7;}
	.st24{font-family:'BloggerSans-Bold';}
	.st25{font-size:98.4547px;}
	.st26{font-size:81.9702px;}
	.st27{font-family:'BloggerSans';}
	.st28{font-size:36.1001px;}
</style>
<g>
	<g>
		<g>
			<g>
				<g>
					<path class="st0" d="M858.56,226.09c0,12.87-12.15,23.3-27.15,23.3s-27.15-10.43-27.15-23.3c0-12.87,12.15-23.3,27.15-23.3
						S858.56,213.22,858.56,226.09z"/>
					<path class="st1" d="M845.96,226.09c0,6.9-6.51,12.49-14.55,12.49c-8.04,0-14.55-5.59-14.55-12.49
						c0-6.9,6.51-12.49,14.55-12.49C839.45,213.6,845.96,219.19,845.96,226.09z"/>
				</g>
				<g>
					<path class="st0" d="M1115.73,226.09c0,12.87-12.15,23.3-27.15,23.3c-14.99,0-27.15-10.43-27.15-23.3
						c0-12.87,12.15-23.3,27.15-23.3C1103.58,202.79,1115.73,213.22,1115.73,226.09z"/>
					<path class="st1" d="M1103.14,226.09c0,6.9-6.51,12.49-14.55,12.49c-8.04,0-14.55-5.59-14.55-12.49
						c0-6.9,6.51-12.49,14.55-12.49C1096.62,213.6,1103.14,219.19,1103.14,226.09z"/>
				</g>
			</g>
			<path class="st2" d="M1119.12,383.41C1083.43,331.45,960,323.79,960,323.79s-123.42,7.66-159.12,59.62
				c-35.69,51.96-18.48,224.8-18.48,224.8H960h177.6C1137.6,608.22,1154.81,435.37,1119.12,383.41z"/>
			<ellipse class="st3" cx="960" cy="316.71" rx="56.95" ry="44.79"/>
			<ellipse class="st0" cx="960" cy="212.49" rx="121.32" ry="126.02"/>
			<path class="st1" d="M979.45,245.54c0,6.17-8.71,11.17-19.45,11.17c-10.74,0-19.45-5-19.45-11.17s8.71-28.67,19.45-28.67
				C970.74,216.87,979.45,239.37,979.45,245.54z"/>
			<g>
				<path class="st4" d="M919.69,206.04c0.51,5.58-4.34,10.45-10.83,10.9c-6.5,0.44-12.18-3.72-12.7-9.3
					c-0.51-5.58,4.34-10.45,10.83-10.9C913.49,196.31,919.18,200.47,919.69,206.04z"/>
				<path class="st4" d="M1023.84,206.04c0.51,5.58-4.34,10.45-10.83,10.9c-6.5,0.44-12.18-3.72-12.7-9.3
					c-0.51-5.58,4.34-10.45,10.83-10.9C1017.64,196.31,1023.32,200.47,1023.84,206.04z"/>
			</g>
			<g>
				<path class="st5" d="M911.49,251.7c0,4.13-6.26,7.48-13.97,7.48c-7.72,0-13.97-3.35-13.97-7.48c0-4.13,6.26-7.48,13.97-7.48
					C905.23,244.22,911.49,247.57,911.49,251.7z"/>
				<ellipse class="st5" cx="1022.49" cy="251.7" rx="13.97" ry="7.48"/>
			</g>
			<path class="st4" d="M1101.57,168.97c-2.09-5.6-6.42-7.73-10.64-13.23c-5.61-7.31-1.7-17.39-7.34-25.08
				c-4.57-6.22-15.41-8.9-23.12-10.94c-13.4-3.54-27.54-4.41-41.54-5.06c-33.65-1.56-67.7-1.96-100.69,3.93
				c-32.99,5.89-65.14,18.55-88,39.79c-5.02,4.66-9.63,9.82-12.11,15.8c-5.12,12.35,4.26,29.95,21.78,28.71
				c8.63-0.61,4.25,23.2,4.25,23.2s16.53,9.6,13.66-5.63c-2.88-15.23,12.22-13.61,18.33-28.52c6.11-14.91-8.27-12.64-7.55-26.9
				c0.72-14.26,23.36-32.73,38.82-26.25c6.18,2.59,15.81,6.42,25.16,10.09c17.5,6.87,37.37,6.87,54.87,0
				c9.34-3.67,18.98-7.5,25.16-10.09c15.46-6.48,38.1,11.99,38.82,26.25c0.72,14.26-13.66,11.99-7.55,26.9
				c6.11,14.91,21.21,13.29,18.33,28.52c-2.88,15.23,13.66,5.63,13.66,5.63s-4.38-23.81,4.25-23.2c8.71,0.62,16.8-4.73,20.3-11.25
				c3.22-6,3.16-12.94,2.04-19.34C1102.23,171.06,1101.94,169.96,1101.57,168.97z"/>
			<g>
				<path class="st4" d="M928.26,271.73c1.23,0,2.46,0.4,3.4,1.21c15.62,13.41,41.05,13.41,56.67,0c1.88-1.61,4.92-1.61,6.8,0
					c1.88,1.61,1.88,4.23,0,5.84c-19.38,16.63-50.91,16.63-70.28,0c-1.88-1.61-1.88-4.23,0-5.84
					C925.8,272.13,927.03,271.73,928.26,271.73z"/>
			</g>
			<path class="st6" d="M859.54,346.33l17.26,88.85c0.66,3.42,4.45,5.73,8.43,5.14l18.73-2.75c4.1-0.6,6.79-4.02,5.9-7.51
				l-23.02-90.39c-0.95-3.75-5.58-5.89-9.75-4.51l-12.97,4.29C860.88,340.53,858.97,343.4,859.54,346.33z"/>
			<path class="st6" d="M1060.46,346.33l-17.26,88.85c-0.67,3.42-4.45,5.73-8.43,5.14l-18.73-2.75c-4.1-0.6-6.79-4.02-5.9-7.51
				l23.02-90.39c0.95-3.75,5.58-5.89,9.75-4.51l12.97,4.29C1059.12,340.53,1061.03,343.4,1060.46,346.33z"/>
			<path class="st7" d="M960,26.51c0,0-137.45,6.15-137.45,135.79H960h137.45C1097.45,32.67,960,26.51,960,26.51z"/>
			<path class="st8" d="M960,135.63c-112.39,0-155.73,32.82-155.73,32.82H960h155.73C1115.73,168.45,1072.39,135.63,960,135.63z"/>
			<path class="st8" d="M959.94,83.76L959.94,83.76c-7.02,0-12.71-4.89-12.71-10.91V32.91c0-6.03,5.69-10.91,12.71-10.91l0,0
				c7.02,0,12.71,4.89,12.71,10.91v39.94C972.65,78.88,966.96,83.76,959.94,83.76z"/>
			<path class="st8" d="M904.44,97.22L904.44,97.22c-7.02,0-12.71-4.89-12.71-10.91V46.37c0-6.03,5.69-10.91,12.71-10.91l0,0
				c7.02,0,12.71,4.89,12.71,10.91v39.94C917.15,92.34,911.46,97.22,904.44,97.22z"/>
			<path class="st9" d="M929.21,133.32H822.55v-24.06c0-1.52,1.23-2.75,2.75-2.75h103.9V133.32z"/>
			<path class="st9" d="M990.66,133.32h106.66v-24.06c0-1.52-1.23-2.75-2.75-2.75h-103.9V133.32z"/>
			<path class="st8" d="M1015.43,97.22L1015.43,97.22c7.02,0,12.71-4.89,12.71-10.91V46.37c0-6.03-5.69-10.91-12.71-10.91l0,0
				c-7.02,0-12.71,4.89-12.71,10.91v39.94C1002.72,92.34,1008.41,97.22,1015.43,97.22z"/>
			<ellipse class="st10" cx="959.93" cy="114.12" rx="41.47" ry="35.59"/>
			<ellipse class="st9" cx="959.93" cy="114.12" rx="38.03" ry="32.64"/>
			<path class="st11" d="M988.18,114.12c0,13.39-12.64,24.24-28.24,24.24c-15.6,0-28.24-10.85-28.24-24.24s12.64-24.24,28.24-24.24
				C975.53,89.89,988.18,100.74,988.18,114.12z"/>
			<g>
				<path class="st12" d="M907.02,245.43h-24.49c-18.98,0-34.42-13.25-34.42-29.54v-21.61c0-10.08,9.56-18.29,21.31-18.29h56.18
					c11.75,0,21.31,8.2,21.31,18.29v16.91C946.91,230.07,929.02,245.43,907.02,245.43z M869.42,184.62
					c-6.21,0-11.26,4.34-11.26,9.66v21.61c0,11.53,10.93,20.92,24.37,20.92h24.49c16.46,0,29.85-11.49,29.85-25.61v-16.91
					c0-5.33-5.05-9.66-11.26-9.66H869.42z"/>
			</g>
			<g>
				<path class="st12" d="M973.09,211.2v-16.91c0-10.08,9.56-18.29,21.31-18.29h56.18c11.75,0,21.31,8.2,21.31,18.29v21.61
					c0,16.29-15.44,29.54-34.42,29.54h-24.49C990.98,245.43,973.09,230.07,973.09,211.2z M994.4,184.62
					c-6.21,0-11.26,4.34-11.26,9.66v16.91c0,14.12,13.39,25.61,29.85,25.61h24.49c13.44,0,24.37-9.38,24.37-20.92v-21.61
					c0-5.33-5.05-9.66-11.26-9.66H994.4z"/>
			</g>
			<rect x="944.53" y="201.68" class="st12" width="30.94" height="7.18"/>
			<path class="st12" d="M836.42,202.84h14.34v-6.12h-14.34c-1.97,0-3.57,1.37-3.57,3.06l0,0
				C832.85,201.47,834.44,202.84,836.42,202.84z"/>
			<path class="st12" d="M1083.58,202.84h-14.34v-6.12h14.34c1.97,0,3.57,1.37,3.57,3.06l0,0
				C1087.15,201.47,1085.56,202.84,1083.58,202.84z"/>
		</g>
		<g>
			<path class="st13" d="M1159.1,590.67H760.9c-1.93,0-3.49,1.56-3.49,3.49v14.06h405.18v-14.06
				C1162.59,592.23,1161.03,590.67,1159.1,590.67z"/>
			<path class="st14" d="M1156.81,595.84H763.19c-3.19,0-5.78-2.59-5.78-5.78v-196.7c0-3.19,2.59-5.78,5.78-5.78h393.62
				c3.19,0,5.78,2.59,5.78,5.78v196.7C1162.59,593.25,1160,595.84,1156.81,595.84z"/>
			<path class="st15" d="M999.32,496.31c0,18.64-17.61,33.76-39.34,33.76c-21.69,0-39.3-15.12-39.3-33.76
				c0-18.61,17.61-33.73,39.3-33.73c2.78,0,5.5,0.23,8.11,0.73c0.44,11.68,11.54,20.97,25.25,20.97c1.12,0,2.24-0.06,3.29-0.2
				C998.37,487.87,999.32,492,999.32,496.31z"/>
		</g>
		<rect x="360" y="608.22" class="st16" width="1200" height="58.79"/>
	</g>
	<g>
		<g>
			<g>
				<rect x="392.96" y="330.77" class="st15" width="249.54" height="62.17"/>
				<rect x="397.75" y="392.94" class="st13" width="239.95" height="9.59"/>
				<path class="st13" d="M447.77,361.86c0,9.21-8.7,16.68-19.44,16.68c-10.74,0-19.44-7.47-19.44-16.68
					c0-9.21,8.7-16.68,19.44-16.68C439.07,345.17,447.77,352.64,447.77,361.86z"/>
				<path class="st17" d="M444.41,361.86c0,7.62-7.2,13.79-16.07,13.79c-8.88,0-16.07-6.18-16.07-13.79
					c0-7.62,7.2-13.79,16.07-13.79C437.21,348.06,444.41,354.24,444.41,361.86z"/>
				<rect x="457.97" y="345.17" class="st13" width="164.12" height="33.37"/>
				<ellipse class="st18" cx="545.38" cy="361.86" rx="4.89" ry="4.19"/>
				<ellipse class="st18" cx="558.68" cy="361.86" rx="4.89" ry="4.19"/>
				<ellipse class="st19" cx="571.99" cy="361.86" rx="4.89" ry="4.19"/>
				<ellipse class="st19" cx="585.29" cy="361.86" rx="4.89" ry="4.19"/>
				<ellipse class="st19" cx="598.6" cy="361.86" rx="4.89" ry="4.19"/>
			</g>
			<g>
				<rect x="392.96" y="402.53" class="st15" width="249.54" height="62.17"/>
				<rect x="397.75" y="464.7" class="st13" width="239.95" height="9.59"/>
				<ellipse class="st13" cx="428.33" cy="433.61" rx="19.44" ry="16.68"/>
				<path class="st17" d="M444.41,433.61c0,7.62-7.2,13.79-16.07,13.79c-8.88,0-16.07-6.18-16.07-13.79
					c0-7.62,7.2-13.79,16.07-13.79C437.21,419.82,444.41,426,444.41,433.61z"/>
				<rect x="457.97" y="416.93" class="st13" width="164.12" height="33.36"/>
				<ellipse class="st18" cx="545.38" cy="433.61" rx="4.89" ry="4.19"/>
				<ellipse class="st18" cx="558.68" cy="433.61" rx="4.89" ry="4.19"/>
				<ellipse class="st7" cx="571.99" cy="433.61" rx="4.89" ry="4.19"/>
				<ellipse class="st7" cx="585.29" cy="433.61" rx="4.89" ry="4.19"/>
				<ellipse class="st7" cx="598.6" cy="433.61" rx="4.89" ry="4.19"/>
			</g>
			<g>
				<rect x="392.96" y="474.29" class="st15" width="249.54" height="62.17"/>
				<rect x="397.75" y="536.46" class="st13" width="239.95" height="9.59"/>
				<path class="st13" d="M447.77,505.37c0,9.21-8.7,16.68-19.44,16.68c-10.74,0-19.44-7.47-19.44-16.68
					c0-9.21,8.7-16.68,19.44-16.68C439.07,488.69,447.77,496.16,447.77,505.37z"/>
				<path class="st17" d="M444.41,505.37c0,7.62-7.2,13.79-16.07,13.79c-8.88,0-16.07-6.18-16.07-13.79
					c0-7.62,7.2-13.79,16.07-13.79C437.21,491.58,444.41,497.75,444.41,505.37z"/>
				<rect x="457.97" y="488.69" class="st13" width="164.12" height="33.37"/>
				<path class="st18" d="M550.27,505.37c0,2.32-2.19,4.19-4.89,4.19c-2.7,0-4.89-1.88-4.89-4.19c0-2.32,2.19-4.19,4.89-4.19
					C548.08,501.18,550.27,503.06,550.27,505.37z"/>
				<path class="st18" d="M563.57,505.37c0,2.32-2.19,4.19-4.89,4.19c-2.7,0-4.89-1.88-4.89-4.19c0-2.32,2.19-4.19,4.89-4.19
					C561.38,501.18,563.57,503.06,563.57,505.37z"/>
				<path class="st18" d="M576.88,505.37c0,2.32-2.19,4.19-4.89,4.19c-2.7,0-4.89-1.88-4.89-4.19c0-2.32,2.19-4.19,4.89-4.19
					C574.69,501.18,576.88,503.06,576.88,505.37z"/>
				<path class="st18" d="M590.18,505.37c0,2.32-2.19,4.19-4.89,4.19c-2.7,0-4.89-1.88-4.89-4.19c0-2.32,2.19-4.19,4.89-4.19
					C587.99,501.18,590.18,503.06,590.18,505.37z"/>
				<path class="st19" d="M603.49,505.37c0,2.32-2.19,4.19-4.89,4.19c-2.7,0-4.89-1.88-4.89-4.19c0-2.32,2.19-4.19,4.89-4.19
					C601.3,501.18,603.49,503.06,603.49,505.37z"/>
			</g>
			<g>
				<rect x="392.96" y="546.04" class="st15" width="249.54" height="62.17"/>
				<ellipse class="st13" cx="428.33" cy="577.13" rx="19.44" ry="16.68"/>
				<path class="st17" d="M444.41,577.13c0,7.62-7.2,13.79-16.07,13.79c-8.88,0-16.07-6.18-16.07-13.79
					c0-7.62,7.2-13.79,16.07-13.79C437.21,563.34,444.41,569.51,444.41,577.13z"/>
				<rect x="457.97" y="560.45" class="st13" width="164.12" height="33.36"/>
				<ellipse class="st7" cx="545.38" cy="577.13" rx="4.89" ry="4.19"/>
				<ellipse class="st7" cx="558.68" cy="577.13" rx="4.89" ry="4.19"/>
				<ellipse class="st7" cx="571.99" cy="577.13" rx="4.89" ry="4.19"/>
				<ellipse class="st7" cx="585.29" cy="577.13" rx="4.89" ry="4.19"/>
				<ellipse class="st7" cx="598.6" cy="577.13" rx="4.89" ry="4.19"/>
			</g>
		</g>
		<g>
			<rect x="1269.97" y="357.36" class="st15" width="249.54" height="251.51"/>
			<rect x="1380.29" y="379.47" class="st13" width="107.76" height="132.01"/>
			<g>
				<ellipse class="st18" cx="1422.38" cy="388.45" rx="4.89" ry="4.19"/>
				<ellipse class="st18" cx="1435.69" cy="388.45" rx="4.89" ry="4.19"/>
				<ellipse class="st19" cx="1448.99" cy="388.45" rx="4.89" ry="4.19"/>
				<ellipse class="st19" cx="1462.3" cy="388.45" rx="4.89" ry="4.19"/>
				<ellipse class="st19" cx="1475.6" cy="388.45" rx="4.89" ry="4.19"/>
			</g>
			<g>
				<ellipse class="st18" cx="1422.38" cy="402.67" rx="4.89" ry="4.19"/>
				<ellipse class="st19" cx="1435.69" cy="402.67" rx="4.89" ry="4.19"/>
				<ellipse class="st19" cx="1448.99" cy="402.67" rx="4.89" ry="4.19"/>
				<ellipse class="st19" cx="1462.3" cy="402.67" rx="4.89" ry="4.19"/>
				<ellipse class="st19" cx="1475.6" cy="402.67" rx="4.89" ry="4.19"/>
			</g>
			<g>
				<ellipse class="st18" cx="1422.38" cy="416.89" rx="4.89" ry="4.19"/>
				<ellipse class="st18" cx="1435.69" cy="416.89" rx="4.89" ry="4.19"/>
				<ellipse class="st18" cx="1448.99" cy="416.89" rx="4.89" ry="4.19"/>
				<ellipse class="st18" cx="1462.3" cy="416.89" rx="4.89" ry="4.19"/>
				<ellipse class="st19" cx="1475.6" cy="416.89" rx="4.89" ry="4.19"/>
			</g>
			<g>
				<ellipse class="st18" cx="1422.38" cy="431.11" rx="4.89" ry="4.19"/>
				<ellipse class="st18" cx="1435.69" cy="431.11" rx="4.89" ry="4.19"/>
				<ellipse class="st18" cx="1448.99" cy="431.11" rx="4.89" ry="4.19"/>
				<ellipse class="st19" cx="1462.3" cy="431.11" rx="4.89" ry="4.19"/>
				<ellipse class="st19" cx="1475.6" cy="431.11" rx="4.89" ry="4.19"/>
			</g>
			<g>
				<ellipse class="st18" cx="1422.38" cy="445.33" rx="4.89" ry="4.19"/>
				<ellipse class="st18" cx="1435.69" cy="445.33" rx="4.89" ry="4.19"/>
				<ellipse class="st19" cx="1448.99" cy="445.33" rx="4.89" ry="4.19"/>
				<ellipse class="st19" cx="1462.3" cy="445.33" rx="4.89" ry="4.19"/>
				<ellipse class="st19" cx="1475.6" cy="445.33" rx="4.89" ry="4.19"/>
			</g>
			<g>
				<ellipse class="st18" cx="1422.38" cy="459.55" rx="4.89" ry="4.19"/>
				<ellipse class="st19" cx="1435.69" cy="459.55" rx="4.89" ry="4.19"/>
				<ellipse class="st19" cx="1448.99" cy="459.55" rx="4.89" ry="4.19"/>
				<ellipse class="st19" cx="1462.3" cy="459.55" rx="4.89" ry="4.19"/>
				<ellipse class="st19" cx="1475.6" cy="459.55" rx="4.89" ry="4.19"/>
			</g>
			<g>
				<ellipse class="st19" cx="1422.38" cy="473.77" rx="4.89" ry="4.19"/>
				<ellipse class="st19" cx="1435.69" cy="473.77" rx="4.89" ry="4.19"/>
				<ellipse class="st19" cx="1448.99" cy="473.77" rx="4.89" ry="4.19"/>
				<ellipse class="st19" cx="1462.3" cy="473.77" rx="4.89" ry="4.19"/>
				<ellipse class="st19" cx="1475.6" cy="473.77" rx="4.89" ry="4.19"/>
			</g>
			<g>
				<ellipse class="st18" cx="1422.38" cy="488" rx="4.89" ry="4.19"/>
				<ellipse class="st18" cx="1435.69" cy="488" rx="4.89" ry="4.19"/>
				<ellipse class="st18" cx="1448.99" cy="488" rx="4.89" ry="4.19"/>
				<ellipse class="st19" cx="1462.3" cy="488" rx="4.89" ry="4.19"/>
				<ellipse class="st19" cx="1475.6" cy="488" rx="4.89" ry="4.19"/>
			</g>
			<g>
				<ellipse class="st18" cx="1422.38" cy="502.22" rx="4.89" ry="4.19"/>
				<ellipse class="st18" cx="1435.69" cy="502.22" rx="4.89" ry="4.19"/>
				<ellipse class="st19" cx="1448.99" cy="502.22" rx="4.89" ry="4.19"/>
				<ellipse class="st19" cx="1462.3" cy="502.22" rx="4.89" ry="4.19"/>
				<ellipse class="st19" cx="1475.6" cy="502.22" rx="4.89" ry="4.19"/>
			</g>
			<g>
				<rect x="1389.58" y="386.72" class="st20" width="17.53" height="3.83"/>
				<rect x="1389.58" y="393.69" class="st20" width="17.53" height="3.83"/>
				<rect x="1389.58" y="400.67" class="st20" width="17.53" height="3.83"/>
				<rect x="1389.58" y="407.64" class="st20" width="17.53" height="3.83"/>
				<rect x="1389.58" y="414.61" class="st20" width="17.53" height="3.83"/>
				<rect x="1389.58" y="421.59" class="st20" width="17.53" height="3.83"/>
				<rect x="1389.58" y="428.56" class="st20" width="17.53" height="3.83"/>
				<rect x="1389.58" y="435.54" class="st20" width="17.53" height="3.83"/>
				<rect x="1389.58" y="442.51" class="st20" width="17.53" height="3.83"/>
				<rect x="1389.58" y="449.48" class="st20" width="17.53" height="3.83"/>
				<rect x="1389.58" y="456.46" class="st20" width="17.53" height="3.83"/>
				<rect x="1389.58" y="463.43" class="st20" width="17.53" height="3.83"/>
				<rect x="1389.58" y="470.41" class="st20" width="17.53" height="3.83"/>
				<rect x="1389.58" y="477.38" class="st20" width="17.53" height="3.83"/>
				<rect x="1389.58" y="484.35" class="st20" width="17.53" height="3.83"/>
				<rect x="1389.58" y="491.33" class="st20" width="17.53" height="3.83"/>
				<rect x="1389.58" y="498.3" class="st20" width="17.53" height="3.83"/>
			</g>
			<ellipse class="st13" cx="1389.58" cy="530.23" rx="4.06" ry="3.49"/>
			<ellipse class="st13" cx="1402.41" cy="530.23" rx="4.06" ry="3.49"/>
			<ellipse class="st13" cx="1415.23" cy="530.23" rx="4.06" ry="3.49"/>
			<ellipse class="st13" cx="1428.06" cy="530.23" rx="4.06" ry="3.49"/>
			<ellipse class="st13" cx="1440.89" cy="530.23" rx="4.06" ry="3.49"/>
			<ellipse class="st13" cx="1453.71" cy="530.23" rx="4.06" ry="3.49"/>
			<ellipse class="st13" cx="1466.54" cy="530.23" rx="4.06" ry="3.49"/>
			<ellipse class="st13" cx="1479.37" cy="530.23" rx="4.06" ry="3.49"/>
			<ellipse class="st13" cx="1389.58" cy="539.87" rx="4.06" ry="3.49"/>
			<ellipse class="st13" cx="1402.41" cy="539.87" rx="4.06" ry="3.49"/>
			<ellipse class="st13" cx="1415.23" cy="539.87" rx="4.06" ry="3.49"/>
			<ellipse class="st13" cx="1428.06" cy="539.87" rx="4.06" ry="3.49"/>
			<ellipse class="st13" cx="1440.89" cy="539.87" rx="4.06" ry="3.49"/>
			<ellipse class="st13" cx="1453.71" cy="539.87" rx="4.06" ry="3.49"/>
			<ellipse class="st13" cx="1466.54" cy="539.87" rx="4.06" ry="3.49"/>
			<ellipse class="st13" cx="1479.37" cy="539.87" rx="4.06" ry="3.49"/>
			<ellipse class="st13" cx="1389.58" cy="549.51" rx="4.06" ry="3.49"/>
			<ellipse class="st13" cx="1402.41" cy="549.51" rx="4.06" ry="3.49"/>
			<ellipse class="st13" cx="1415.23" cy="549.51" rx="4.06" ry="3.49"/>
			<ellipse class="st13" cx="1428.06" cy="549.51" rx="4.06" ry="3.49"/>
			<ellipse class="st13" cx="1440.89" cy="549.51" rx="4.06" ry="3.49"/>
			<ellipse class="st13" cx="1453.71" cy="549.51" rx="4.06" ry="3.49"/>
			<ellipse class="st13" cx="1466.54" cy="549.51" rx="4.06" ry="3.49"/>
			<ellipse class="st13" cx="1479.37" cy="549.51" rx="4.06" ry="3.49"/>
			<ellipse class="st13" cx="1389.58" cy="559.15" rx="4.06" ry="3.49"/>
			<ellipse class="st13" cx="1402.41" cy="559.15" rx="4.06" ry="3.49"/>
			<ellipse class="st13" cx="1415.23" cy="559.15" rx="4.06" ry="3.49"/>
			<ellipse class="st13" cx="1428.06" cy="559.15" rx="4.06" ry="3.49"/>
			<ellipse class="st13" cx="1440.89" cy="559.15" rx="4.06" ry="3.49"/>
			<ellipse class="st13" cx="1453.71" cy="559.15" rx="4.06" ry="3.49"/>
			<ellipse class="st13" cx="1466.54" cy="559.15" rx="4.06" ry="3.49"/>
			<ellipse class="st13" cx="1479.37" cy="559.15" rx="4.06" ry="3.49"/>
			<ellipse class="st13" cx="1389.58" cy="568.79" rx="4.06" ry="3.49"/>
			<ellipse class="st13" cx="1402.41" cy="568.79" rx="4.06" ry="3.49"/>
			<ellipse class="st13" cx="1415.23" cy="568.79" rx="4.06" ry="3.49"/>
			<ellipse class="st13" cx="1428.06" cy="568.79" rx="4.06" ry="3.49"/>
			<ellipse class="st13" cx="1440.89" cy="568.79" rx="4.06" ry="3.49"/>
			<ellipse class="st13" cx="1453.71" cy="568.79" rx="4.06" ry="3.49"/>
			<ellipse class="st13" cx="1466.54" cy="568.79" rx="4.06" ry="3.49"/>
			<ellipse class="st13" cx="1479.37" cy="568.79" rx="4.06" ry="3.49"/>
			<ellipse class="st13" cx="1389.58" cy="578.43" rx="4.06" ry="3.49"/>
			<ellipse class="st13" cx="1402.41" cy="578.43" rx="4.06" ry="3.49"/>
			<ellipse class="st13" cx="1415.23" cy="578.43" rx="4.06" ry="3.49"/>
			<ellipse class="st13" cx="1428.06" cy="578.43" rx="4.06" ry="3.49"/>
			<ellipse class="st13" cx="1440.89" cy="578.43" rx="4.06" ry="3.49"/>
			<ellipse class="st13" cx="1453.71" cy="578.43" rx="4.06" ry="3.49"/>
			<ellipse class="st13" cx="1466.54" cy="578.43" rx="4.06" ry="3.49"/>
			<ellipse class="st13" cx="1479.37" cy="578.43" rx="4.06" ry="3.49"/>
			<g>
				<rect x="1293.02" y="379.47" class="st13" width="31.92" height="27.39"/>
				<path class="st20" d="M1319.4,403.17h-20.84c-0.68,0-1.24-0.55-1.24-1.24V384.4c0-0.68,0.55-1.24,1.24-1.24h20.84
					c0.68,0,1.24,0.55,1.24,1.24v17.53C1320.64,402.62,1320.08,403.17,1319.4,403.17z"/>
			</g>
			<g>
				<rect x="1293.02" y="409.81" class="st13" width="31.92" height="27.39"/>
				<path class="st20" d="M1319.4,433.51h-20.84c-0.68,0-1.24-0.55-1.24-1.24v-17.53c0-0.68,0.55-1.24,1.24-1.24h20.84
					c0.68,0,1.24,0.55,1.24,1.24v17.53C1320.64,432.95,1320.08,433.51,1319.4,433.51z"/>
			</g>
			<g>
				<rect x="1293.02" y="440.14" class="st13" width="31.92" height="27.39"/>
				<path class="st20" d="M1319.4,463.84h-20.84c-0.68,0-1.24-0.55-1.24-1.24v-17.53c0-0.68,0.55-1.24,1.24-1.24h20.84
					c0.68,0,1.24,0.55,1.24,1.24v17.53C1320.64,463.29,1320.08,463.84,1319.4,463.84z"/>
			</g>
			<g>
				<rect x="1293.02" y="470.48" class="st13" width="31.92" height="27.39"/>
				<path class="st20" d="M1319.4,494.18h-20.84c-0.68,0-1.24-0.55-1.24-1.24v-17.53c0-0.68,0.55-1.24,1.24-1.24h20.84
					c0.68,0,1.24,0.55,1.24,1.24v17.53C1320.64,493.62,1320.08,494.18,1319.4,494.18z"/>
			</g>
			<g>
				<rect x="1293.02" y="500.82" class="st13" width="31.92" height="27.39"/>
				<path class="st20" d="M1319.4,524.51h-20.84c-0.68,0-1.24-0.55-1.24-1.24v-17.53c0-0.68,0.55-1.24,1.24-1.24h20.84
					c0.68,0,1.24,0.55,1.24,1.24v17.53C1320.64,523.96,1320.08,524.51,1319.4,524.51z"/>
			</g>
			<g>
				<rect x="1293.02" y="531.15" class="st13" width="31.92" height="27.39"/>
				<path class="st20" d="M1319.4,554.85h-20.84c-0.68,0-1.24-0.55-1.24-1.24v-17.53c0-0.68,0.55-1.24,1.24-1.24h20.84
					c0.68,0,1.24,0.55,1.24,1.24v17.53C1320.64,554.3,1320.08,554.85,1319.4,554.85z"/>
			</g>
		</g>
		<path class="st14" d="M735.48,559.26H516.17c-1.97,0-3.57,1.6-3.57,3.57v45.38h226.46v-45.38
			C739.05,560.86,737.45,559.26,735.48,559.26z"/>
		<g>
			<rect x="555.9" y="565.34" class="st15" width="6.32" height="36.79"/>
			<rect x="572.59" y="565.34" class="st15" width="6.32" height="36.79"/>
			<rect x="589.28" y="565.34" class="st15" width="6.32" height="36.79"/>
			<rect x="605.97" y="565.34" class="st15" width="6.32" height="36.79"/>
			<rect x="622.67" y="565.34" class="st15" width="6.32" height="36.79"/>
			<rect x="639.36" y="565.34" class="st15" width="6.32" height="36.79"/>
			<rect x="656.05" y="565.34" class="st15" width="6.32" height="36.79"/>
			<rect x="672.74" y="565.34" class="st15" width="6.32" height="36.79"/>
			<rect x="689.44" y="565.34" class="st15" width="6.32" height="36.79"/>
		</g>
		<g>
			<g>
				<path class="st15" d="M549.11,583.46c0,6.35-6,11.5-13.4,11.5c-7.4,0-13.4-5.15-13.4-11.5c0-6.35,6-11.5,13.4-11.5
					C543.12,571.96,549.11,577.11,549.11,583.46z"/>
				<path class="st21" d="M544.27,575.76c0.26,4.18-3.68,7.7-8.56,7.7c-4.87,0-8.82-3.52-8.56-7.7l1.92-67.04l0.16-2.76l0.21-3.69
					l0.16-2.8l0.21-3.69l0.21-2.8l0.31-5.92c0-2.58,2.39-4.63,5.39-4.63s5.39,2.05,5.39,4.63l0.31,5.92l0.21,2.8l0.21,3.69l0.16,2.8
					l0.21,3.69l0.16,2.76L544.27,575.76z"/>
				<polygon class="st20" points="541.63,495.76 529.8,495.76 530.01,492.96 541.42,492.96 				"/>
				<polygon class="st20" points="541.99,502.26 529.44,502.26 529.6,499.46 541.84,499.46 				"/>
				<polygon class="st20" points="542.36,508.72 529.08,508.72 529.23,505.96 542.2,505.96 				"/>
			</g>
			<g>
				<path class="st15" d="M729.33,583.46c0,6.35-6,11.5-13.4,11.5c-7.4,0-13.4-5.15-13.4-11.5c0-6.35,6-11.5,13.4-11.5
					C723.33,571.96,729.33,577.11,729.33,583.46z"/>
				<path class="st21" d="M724.49,575.76c0.26,4.18-3.68,7.7-8.56,7.7s-8.82-3.52-8.56-7.7l1.92-67.04l0.16-2.76l0.21-3.69l0.16-2.8
					l0.21-3.69l0.21-2.8l0.31-5.92c0-2.58,2.39-4.63,5.39-4.63c3.01,0,5.39,2.05,5.39,4.63l0.31,5.92l0.21,2.8l0.21,3.69l0.16,2.8
					l0.21,3.69l0.16,2.76L724.49,575.76z"/>
				<polygon class="st20" points="721.85,495.76 710.02,495.76 710.23,492.96 721.64,492.96 				"/>
				<polygon class="st20" points="722.21,502.26 709.66,502.26 709.81,499.46 722.05,499.46 				"/>
				<polygon class="st20" points="722.57,508.72 709.29,508.72 709.45,505.96 722.41,505.96 				"/>
			</g>
		</g>
		<g>
			<rect x="1218.15" y="566.1" class="st14" width="229.54" height="42.12"/>
			<g>
				<rect x="1218.15" y="572.19" class="st15" width="29.1" height="4.98"/>
				<rect x="1218.15" y="581" class="st15" width="29.1" height="4.98"/>
				<rect x="1218.15" y="589.8" class="st15" width="29.1" height="4.98"/>
				<rect x="1218.15" y="598.6" class="st15" width="29.1" height="4.98"/>
			</g>
			<g>
				
					<rect x="1418.58" y="572.19" transform="matrix(-1 -1.224647e-16 1.224647e-16 -1 2866.2634 1149.3621)" class="st15" width="29.1" height="4.98"/>
				
					<rect x="1418.58" y="581" transform="matrix(-1 -1.224647e-16 1.224647e-16 -1 2866.2634 1166.9701)" class="st15" width="29.1" height="4.98"/>
				
					<rect x="1418.58" y="589.8" transform="matrix(-1 -1.224647e-16 1.224647e-16 -1 2866.2634 1184.5784)" class="st15" width="29.1" height="4.98"/>
				
					<rect x="1418.58" y="598.6" transform="matrix(-1 -1.224647e-16 1.224647e-16 -1 2866.2634 1202.1863)" class="st15" width="29.1" height="4.98"/>
			</g>
			<rect x="1260.23" y="574.68" class="st15" width="30.35" height="26.05"/>
			<rect x="1263.13" y="577.17" class="st17" width="24.55" height="21.07"/>
			<rect x="1296.88" y="574.68" class="st15" width="30.35" height="26.05"/>
			<rect x="1335.12" y="574.68" class="st15" width="30.35" height="8.8"/>
			<rect x="1337.49" y="576.45" class="st17" width="25.61" height="5.26"/>
			<rect x="1375.26" y="574.68" class="st15" width="30.35" height="8.8"/>
			<rect x="1377.63" y="576.45" class="st17" width="25.61" height="5.26"/>
			<rect x="1299.78" y="577.17" class="st17" width="24.55" height="21.07"/>
			<ellipse class="st18" cx="1341.84" cy="593.28" rx="6.72" ry="5.76"/>
			<path class="st21" d="M1345.9,593.28c0,1.92-1.82,3.48-4.06,3.48s-4.06-1.56-4.06-3.48c0-1.92,1.82-3.48,4.06-3.48
				S1345.9,591.36,1345.9,593.28z"/>
			<ellipse class="st12" cx="1359.82" cy="593.28" rx="6.72" ry="5.76"/>
			<path class="st21" d="M1363.88,593.28c0,1.92-1.82,3.48-4.06,3.48c-2.24,0-4.06-1.56-4.06-3.48c0-1.92,1.82-3.48,4.06-3.48
				C1362.06,589.8,1363.88,591.36,1363.88,593.28z"/>
			<path class="st22" d="M1384.52,593.28c0,3.18-3.01,5.76-6.72,5.76c-3.71,0-6.72-2.58-6.72-5.76c0-3.18,3.01-5.76,6.72-5.76
				C1381.51,587.52,1384.52,590.1,1384.52,593.28z"/>
			<path class="st21" d="M1381.86,593.28c0,1.92-1.82,3.48-4.06,3.48c-2.24,0-4.06-1.56-4.06-3.48c0-1.92,1.82-3.48,4.06-3.48
				C1380.05,589.8,1381.86,591.36,1381.86,593.28z"/>
			<ellipse class="st7" cx="1395.79" cy="593.28" rx="6.72" ry="5.76"/>
			<path class="st21" d="M1399.85,593.28c0,1.92-1.82,3.48-4.06,3.48c-2.24,0-4.06-1.56-4.06-3.48c0-1.92,1.82-3.48,4.06-3.48
				C1398.03,589.8,1399.85,591.36,1399.85,593.28z"/>
		</g>
		<g>
			<path class="st23" d="M1275.4,639.94h-174.96c-3.17,0-5.74-2.2-5.74-4.92v-31.44c0-2.72,2.57-4.92,5.74-4.92s5.74,2.2,5.74,4.92
				v26.51h163.49V587.7c0-2.72,2.57-4.92,5.74-4.92c3.17,0,5.74,2.2,5.74,4.92v47.31C1281.14,637.74,1278.57,639.94,1275.4,639.94z"
				/>
		</g>
		<g>
			<path class="st23" d="M1312.06,657.44h-176.57c-3.17,0-5.74-2.2-5.74-4.92v-48.94c0-2.72,2.57-4.92,5.74-4.92
				c3.17,0,5.74,2.2,5.74,4.92v44.02h165.1V587.7c0-2.72,2.57-4.92,5.74-4.92c3.17,0,5.74,2.2,5.74,4.92v64.82
				C1317.8,655.24,1315.23,657.44,1312.06,657.44z"/>
		</g>
		<g>
			<path class="st23" d="M1350.3,398.09h-41.32c-3.17,0-5.74-2.2-5.74-4.92c0-2.72,2.57-4.92,5.74-4.92h41.32
				c3.17,0,5.74,2.2,5.74,4.92C1356.03,395.89,1353.46,398.09,1350.3,398.09z"/>
		</g>
		<g>
			<path class="st23" d="M1350.3,428.43h-41.32c-3.17,0-5.74-2.2-5.74-4.92s2.57-4.92,5.74-4.92h41.32c3.17,0,5.74,2.2,5.74,4.92
				S1353.46,428.43,1350.3,428.43z"/>
		</g>
		<g>
			<path class="st23" d="M1350.3,458.76h-41.32c-3.17,0-5.74-2.2-5.74-4.92c0-2.72,2.57-4.92,5.74-4.92h41.32
				c3.17,0,5.74,2.2,5.74,4.92C1356.03,456.56,1353.46,458.76,1350.3,458.76z"/>
		</g>
		<g>
			<path class="st23" d="M1350.3,489.1h-41.32c-3.17,0-5.74-2.2-5.74-4.92c0-2.72,2.57-4.92,5.74-4.92h41.32
				c3.17,0,5.74,2.2,5.74,4.92C1356.03,486.89,1353.46,489.1,1350.3,489.1z"/>
		</g>
		<g>
			<path class="st23" d="M1350.3,519.43h-41.32c-3.17,0-5.74-2.2-5.74-4.92c0-2.72,2.57-4.92,5.74-4.92h41.32
				c3.17,0,5.74,2.2,5.74,4.92C1356.03,517.23,1353.46,519.43,1350.3,519.43z"/>
		</g>
		<g>
			<path class="st23" d="M870.35,645.96H715.93c-3.17,0-5.74-2.2-5.74-4.92v-50.11c0-2.72,2.57-4.92,5.74-4.92
				c3.17,0,5.74,2.2,5.74,4.92v45.19h142.95v-33.98c0-2.72,2.57-4.92,5.74-4.92c3.17,0,5.74,2.2,5.74,4.92v38.9
				C876.09,643.75,873.52,645.96,870.35,645.96z"/>
		</g>
		<g>
			<path class="st23" d="M535.72,642.54H428.33c-3.17,0-5.74-2.2-5.74-4.92v-60.48c0-2.72,2.57-4.92,5.74-4.92
				c3.17,0,5.74,2.2,5.74,4.92v55.56h95.91v-42.02c0-2.72,2.57-4.92,5.74-4.92s5.74,2.2,5.74,4.92v46.95
				C541.45,640.33,538.88,642.54,535.72,642.54z"/>
		</g>
	</g>
</g>
<text transform="matrix(1.1652 0 0 1 399.1313 868.4053)" class="st21 st24 st25">Somthing went wrong!</text>
<text transform="matrix(1.1652 0 0 1 846.5801 769.2129)" class="st2 st24 st26">Oops!</text>
<text transform="matrix(1.1652 0 0 1 524.5322 929.9072)"><tspan x="0" y="0" class="st2 st27 st28">So sorry, but our site under maintenance right now,</tspan><tspan x="43.46" y="43.32" class="st2 st27 st28">we are doing our best and we will back soon. </tspan></text>
</svg>
